<svg width="65" height="28" viewBox="0 0 65 28" fill="none" xmlns="http://www.w3.org/2000/svg">
<rect width="65" height="28" rx="14" fill="#212131"/>
<path d="M22.3989 11.7184L20.7583 9.65192C20.9089 9.47686 21 9.24906 21 9C21 8.44772 20.5523 8 20 8C19.4477 8 19 8.44772 19 9C19 9.24872 19.0908 9.47624 19.2411 9.6512L17.6011 11.7182C17.4567 11.9001 17.2062 11.9587 16.9962 11.8597L14.4846 10.6757C14.4947 10.6186 14.5 10.5599 14.5 10.5C14.5 9.94772 14.0523 9.5 13.5 9.5C12.9477 9.5 12.5 9.94772 12.5 10.5C12.5 11.0523 12.9477 11.5 13.5 11.5C13.5301 11.5 13.5599 11.4987 13.5893 11.4961L14.8891 17.9951C15.006 18.5794 15.519 19 16.1149 19H23.8852C24.481 19 24.994 18.5794 25.1109 17.9951L26.4107 11.4961C26.4401 11.4987 26.4699 11.5 26.5 11.5C27.0523 11.5 27.5 11.0523 27.5 10.5C27.5 9.94772 27.0523 9.5 26.5 9.5C25.9477 9.5 25.5 9.94772 25.5 10.5C25.5 10.5599 25.5053 10.6187 25.5154 10.6757L23.0037 11.8598C22.7937 11.9588 22.5432 11.9002 22.3989 11.7184ZM20 16C19.4477 16 19 15.5523 19 15C19 14.4477 19.4477 14 20 14C20.5523 14 21 14.4477 21 15C21 15.5523 20.5523 16 20 16Z" fill="white"/>
<path d="M37.25 15.0352C39.4121 15.0352 40.7305 15.7617 40.7305 17.0039C40.7305 18.2637 39.4121 18.9902 37.25 18.9961C35.0645 18.9902 33.7227 18.2637 33.7227 17.0039C33.7227 15.7617 35.0645 15.0352 37.25 15.0352ZM32.7969 14.0273V9.15234H33.8867V10.6641H36.6406V9.15234H37.7422V14.0273H32.7969ZM33.8867 13.1367H36.6406V11.543H33.8867V13.1367ZM34.8359 17.0039C34.8301 17.707 35.7324 18.1055 37.25 18.1055C38.7559 18.1055 39.6465 17.707 39.6406 17.0039C39.6465 16.3066 38.7559 15.9141 37.25 15.9141C35.7324 15.9141 34.8301 16.3066 34.8359 17.0039ZM39.5234 14.7656V8.49609H40.6367V11.0625H42.1602V12.0117H40.6367V14.7656H39.5234ZM46.4258 10.4297C46.4199 11.7656 47.3516 12.9844 48.9453 13.4883L48.418 14.3555C47.2227 13.9746 46.3496 13.1836 45.8867 12.1875C45.4297 13.3359 44.5098 14.2441 43.25 14.6836L42.6758 13.793C44.3164 13.2539 45.3066 11.9004 45.3125 10.4414V10.1484H43.0039V9.24609H48.6875V10.1484H46.4258V10.4297ZM44.0938 17.0039C44.0938 15.7734 45.4355 15.0527 47.6211 15.0586C49.7832 15.0527 51.1016 15.7734 51.1016 17.0039C51.1016 18.252 49.7832 18.9785 47.6211 18.9727C45.4355 18.9785 44.0938 18.252 44.0938 17.0039ZM45.207 17.0039C45.2012 17.707 46.1035 18.0996 47.6211 18.0938C49.127 18.0996 50.0176 17.707 50.0117 17.0039C50.0176 16.3184 49.127 15.9316 47.6211 15.9375C46.1035 15.9316 45.2012 16.3184 45.207 17.0039ZM49.8945 14.8008V8.49609H51.0078V11.0977H52.5312V12.0117H51.0078V14.8008H49.8945Z" fill="white"/>
</svg>
